<?xml version="1.0" standalone="no"?>
<!DOCTYPE svg PUBLIC "-//W3C//DTD SVG 20010904//EN"
 "http://www.w3.org/TR/2001/REC-SVG-20010904/DTD/svg10.dtd">
<svg version="1.0" xmlns="http://www.w3.org/2000/svg"
 width="512.000000pt" height="512.000000pt" viewBox="0 0 512.000000 512.000000"
 preserveAspectRatio="xMidYMid meet">
<metadata>
Created by potrace 1.14, written by Peter Selinger 2001-2017
</metadata>
<g transform="translate(0.000000,512.000000) scale(0.100000,-0.100000)"
fill="#000000" stroke="none">
<path d="M1515 4789 c-318 -91 -593 -355 -700 -673 -19 -58 -36 -87 -63 -113
-76 -72 -278 -139 -476 -158 -217 -21 -337 -238 -237 -430 98 -189 335 -326
656 -380 16 -2 68 -7 115 -10 189 -12 214 -16 252 -41 65 -42 86 -130 49 -202
-11 -21 -50 -78 -88 -127 -177 -229 -268 -386 -304 -522 -5 -18 -13 -50 -19
-70 -5 -21 -12 -56 -15 -78 -3 -22 -8 -51 -10 -65 -7 -31 -8 -257 -1 -287 6
-29 18 -111 17 -118 -2 -15 76 -219 109 -284 135 -269 404 -516 730 -673 166
-80 401 -157 568 -188 31 -5 66 -12 78 -14 12 -2 45 -8 75 -11 30 -4 65 -9 79
-11 131 -19 551 -26 700 -11 109 11 275 36 346 52 34 8 73 16 87 19 70 12 349
98 412 126 11 5 45 19 75 31 158 65 398 207 535 318 128 103 267 251 344 364
60 88 162 296 196 400 67 206 90 354 90 587 0 300 -52 527 -181 797 -86 178
-256 413 -368 509 -94 81 -246 73 -327 -17 -45 -49 -60 -90 -64 -179 -5 -96
-18 -148 -58 -223 -132 -250 -542 -414 -1037 -415 -118 0 -257 13 -355 33
-140 28 -215 95 -215 189 0 33 16 62 63 111 43 46 131 182 165 257 31 67 68
177 77 227 2 14 9 49 14 76 10 52 8 302 -3 345 -3 14 -9 41 -12 60 -17 99 -90
269 -161 378 -49 73 -166 196 -241 253 -84 64 -218 131 -323 163 -80 25 -97
26 -295 25 -177 0 -220 -3 -279 -20z"/>
</g>
</svg>
